<?xml version="1.0" encoding="utf-8"?>
<!-- Generator: Adobe Illustrator 20.0.0, SVG Export Plug-In . SVG Version: 6.00 Build 0)  -->
<svg version="1.1" id="Layer_1" xmlns="http://www.w3.org/2000/svg"  x="0px" y="0px"
	 viewBox="0 0 100 100" style="enable-background:new 0 0 100 100;" xml:space="preserve">
<style type="text/css">
	.st0{fill:#3F6184;}
</style>
<g>
	<g>
		<path class="st0" d="M40.8,40.8l-0.6-0.5c-4.9-4.5-16.1-15.4-13-20.5c1-1.6,4.3-3.9,10-1c6.4,3.4,20.5,16.8,21.1,17.4l2.9,2.8
			L40.8,40.8z M34.2,21.4c-2.8-1.1-3.8,0.2-3.8,0.2l0,0C29.6,23,34.5,29.9,42.1,37l10.7-1c-4.5-4.2-13-11.7-17.3-14
			C35,21.8,34.6,21.6,34.2,21.4z"/>
	</g>
	<g>
		<path class="st0" d="M32,81c-0.9-0.3-1.3-0.9-1.6-1.3c-1.7-3,1.6-8.4,10-20.3c1.4-2,3.1-4.4,4-5.8c-2.5-0.2-7.7-0.1-12.1,0
			c-14.7,0.4-24.6,0.5-27.3-3c-2-2.5-2-7.7-2-12.8c0-0.6,0-1.2,0-1.7c0-0.8-0.1-1.6-0.1-2.5c-0.2-3.5-0.5-7.9,3.2-8.3
			c2.5-0.3,4.6,2.6,7.6,6.6c1.6,2.1,3.4,4.6,5.1,6.1c3.4,0.9,27.9-1.4,38.5-2.4l4.1-0.4c12.1-1.1,19.6-1.8,21.8-1.7
			c6.7,0.3,14.3,4.9,15.3,13c0.3,3.1-3.6,3.7-16.2,5.5C76.6,52.7,70,53.6,66,54.7c-1.4,0.9-3.6,3.7-6,6.7
			c-6.4,8.1-15.1,19.1-26.2,19.8C33.1,81.3,32.5,81.2,32,81z M47.1,50.4c0.6,0.2,1,0.5,1.3,0.9c0.4,0.6,0.6,1.3,0.4,2
			c-0.3,1.3-1.9,3.6-5.3,8.3c-3.1,4.3-9.3,13.1-9.8,16c9.3-0.8,17.4-11,23.3-18.4c3-3.8,5.2-6.6,7.2-7.7l0.2-0.1l0.2-0.1
			c4.3-1.3,10.9-2.2,17.2-3c4.7-0.6,10.9-1.5,12.9-2.2c-1.1-5.3-6.6-8.6-11.6-8.8l0,0c-2-0.1-11.4,0.8-21.3,1.7l-4.1,0.4
			c-35.1,3.3-39.6,3-41.1,1.7c-2-1.8-3.9-4.3-5.7-6.8c-1.3-1.7-3.1-4.2-4.1-4.9c-0.2,0.9-0.1,2.9,0,4.2c0.1,0.9,0.1,1.8,0.1,2.7
			c0,0.5,0,1.1,0,1.7c0,2.9-0.1,8.8,1.2,10.5c1.7,2.3,16.4,1.8,24.2,1.6C41.2,49.7,45.2,49.7,47.1,50.4z"/>
	</g>
</g>
</svg>
