<?xml version="1.0" encoding="utf-8"?>
<!-- Generator: Adobe Illustrator 20.0.0, SVG Export Plug-In . SVG Version: 6.00 Build 0)  -->
<svg version="1.1" id="Capa_1" xmlns="http://www.w3.org/2000/svg"  x="0px" y="0px"
	 viewBox="0 0 54 54" style="enable-background:new 0 0 54 54;" xml:space="preserve">
<style type="text/css">
	.st0{fill:#FF870D;}
</style>
<g>
	<path class="st0" d="M52,26H11l13.8-13.8c0.4-0.4,0.4-1,0-1.4c-0.4-0.4-1-0.4-1.4,0L8,26.3c-0.1,0.1-0.2,0.2-0.2,0.3
		c-0.1,0.2-0.1,0.5,0,0.7c0,0.1,0.1,0.2,0.2,0.3l15.4,15.4c0.2,0.2,0.4,0.3,0.7,0.3s0.5-0.1,0.7-0.3c0.4-0.4,0.4-1,0-1.4L11,28h41
		c0.5,0,1-0.4,1-1C53,26.5,52.6,26,52,26z"/>
	<path class="st0" d="M2,10.6c-0.5,0-1,0.4-1,1v30.8c0,0.5,0.4,1,1,1s1-0.4,1-1V11.6C2.9,11.1,2.5,10.6,2,10.6z"/>
</g>
</svg>
