<?xml version="1.0" encoding="utf-8"?>
<!-- Generator: Adobe Illustrator 20.0.0, SVG Export Plug-In . SVG Version: 6.00 Build 0)  -->
<svg version="1.1" id="Layer_1" xmlns="http://www.w3.org/2000/svg"  x="0px" y="0px"
	 viewBox="0 0 160 160" style="enable-background:new 0 0 160 160;" xml:space="preserve">
<path d="M154.6,6.1c-3.5-3.4-9-3.4-12.4,0l-62,62l-62-62c-3.4-3.4-9-3.4-12.4,0c-3.4,3.4-3.4,9,0,12.4l62,62l-62,62
	c-3.4,3.4-3.4,8.9,0,12.4c1.7,1.7,3.9,2.6,6.2,2.6c2.2,0,4.5-0.9,6.2-2.6l62-62.1l62,62.1c1.7,1.7,3.9,2.6,6.2,2.6
	c2.2,0,4.5-0.9,6.2-2.6c3.4-3.5,3.4-9,0-12.4l-62.1-62l62.1-62C158.1,15.1,158.1,9.5,154.6,6.1L154.6,6.1z M154.6,6.1"/>
</svg>
