<?xml version="1.0" encoding="utf-8"?>
<!-- Generator: Adobe Illustrator 21.0.2, SVG Export Plug-In . SVG Version: 6.00 Build 0)  -->
<svg version="1.1" id="Layer_1" xmlns="http://www.w3.org/2000/svg"  x="0px" y="0px"
	 viewBox="0 0 56.7 56.7" style="enable-background:new 0 0 56.7 56.7;" xml:space="preserve">
<style type="text/css">
	.st0{fill:#E9E9E0;}
	.st1{fill:#D9D7CA;}
	.st2{fill:#A7AAAE;}
	.st3{fill:#0096E6;}
	.st4{fill:#FFFFFF;}
</style>
<title>doc</title>
<g>
	<path class="st0" d="M37.4,0H8.1C7.3,0,6.6,0.7,6.6,2v53.7c0.2,0.6,0.8,1,1.5,1h40.5c0.7,0,1.3-0.4,1.5-1V13.1
		c0-0.7-0.1-0.9-0.3-1.1L38.1,0.3C37.9,0.1,37.7,0,37.4,0L37.4,0z"/>
	<path class="st1" d="M38,0.2v12h12L38,0.2z"/>
	<path class="st2" d="M18.7,13.2h-6.1c-0.6,0-1-0.5-1-1s0.5-1,1-1h6.1c0.6,0,1,0.5,1,1S19.3,13.2,18.7,13.2z"/>
	<path class="st2" d="M21.8,18.2h-9.1c-0.6,0-1-0.5-1-1c0-0.6,0.5-1,1-1h9.1c0.6,0,1,0.5,1,1C22.8,17.8,22.3,18.2,21.8,18.2z"/>
	<path class="st2" d="M25.8,18.2c-0.6,0-1-0.4-1-1c0,0,0,0,0,0c0-0.6,0.5-1,1-1c0.3,0,0.5,0.1,0.7,0.3c0.4,0.4,0.4,1,0,1.4
		C26.3,18.1,26.1,18.2,25.8,18.2L25.8,18.2z"/>
	<path class="st2" d="M38,18.2h-8.1c-0.6,0-1-0.5-1-1c0-0.6,0.5-1,1-1H38c0.6,0,1,0.5,1,1C39,17.8,38.5,18.2,38,18.2z"/>
	<path class="st2" d="M12.7,33.4c-0.3,0-0.5-0.1-0.7-0.3c-0.4-0.4-0.4-1,0-1.4c0.4-0.4,1-0.4,1.4,0c0.2,0.2,0.3,0.5,0.3,0.7
		C13.7,33,13.2,33.4,12.7,33.4C12.7,33.4,12.7,33.4,12.7,33.4L12.7,33.4z"/>
	<path class="st2" d="M24.8,33.4h-8.1c-0.6,0-1-0.5-1-1c0-0.6,0.5-1,1-1h8.1c0.6,0,1,0.5,1,1C25.8,33,25.4,33.4,24.8,33.4z"/>
	<path class="st2" d="M44,18.2h-2c-0.6,0-1-0.5-1-1c0-0.6,0.5-1,1-1h2c0.6,0,1,0.5,1,1C45,17.8,44.6,18.2,44,18.2L44,18.2z"/>
	<path class="st2" d="M34.9,23.3H12.7c-0.6,0-1-0.5-1-1c0-0.6,0.5-1,1-1h22.3c0.6,0,1,0.5,1,1C35.9,22.8,35.5,23.3,34.9,23.3z"/>
	<path class="st2" d="M44,23.3h-6.1c-0.6,0-1-0.5-1-1c0-0.6,0.5-1,1-1H44c0.6,0,1,0.5,1,1C45,22.8,44.6,23.3,44,23.3z"/>
	<path class="st2" d="M16.7,28.3h-4c-0.6,0-1-0.5-1-1c0-0.6,0.5-1,1-1h4c0.6,0,1,0.5,1,1C17.7,27.9,17.3,28.3,16.7,28.3z"/>
	<path class="st2" d="M30.9,28.3H20.8c-0.6,0-1-0.5-1-1c0-0.6,0.5-1,1-1h10.1c0.6,0,1,0.5,1,1C31.9,27.9,31.4,28.3,30.9,28.3z"/>
	<path class="st2" d="M44,28.3h-9.1c-0.6,0-1-0.5-1-1c0-0.6,0.5-1,1-1H44c0.6,0,1,0.5,1,1C45,27.9,44.6,28.3,44,28.3z"/>
	<path class="st3" d="M48.6,56.7H8.1c-0.8,0-1.5-0.7-1.5-1.5v0V39.5h43.5v15.7C50.1,56,49.4,56.7,48.6,56.7L48.6,56.7L48.6,56.7z"/>
	<path class="st4" d="M23.8,48.3c0,0.7-0.1,1.5-0.3,2.2c-0.2,0.5-0.4,1-0.7,1.5c-0.2,0.4-0.6,0.7-0.9,0.9c-0.6,0.4-1.2,0.6-1.9,0.7
		c-0.2,0-0.4,0-0.6,0h-3.9V43.5h3c0.8,0,1.5,0.1,2.3,0.4c0.6,0.2,1.2,0.6,1.6,1.1c0.4,0.4,0.7,1,1,1.5C23.6,47,23.8,47.6,23.8,48.3
		L23.8,48.3z M18.9,52.4c0.9,0.1,1.9-0.3,2.4-1.1c0.6-0.9,0.8-2,0.7-3.1c0-0.4-0.1-0.8-0.2-1.3c-0.1-0.4-0.3-0.8-0.6-1.1
		c-0.3-0.4-0.7-0.6-1.2-0.8c-0.6-0.2-1.3-0.3-1.9-0.3h-1v7.7H18.9z"/>
	<path class="st4" d="M33.9,48.5c0,0.8-0.1,1.5-0.3,2.3c-0.2,0.6-0.5,1.1-0.9,1.6c-0.4,0.4-0.8,0.8-1.3,1c-1.1,0.4-2.3,0.4-3.4,0
		c-0.5-0.2-1-0.6-1.3-1c-0.4-0.5-0.7-1-0.9-1.6c-0.2-0.7-0.3-1.5-0.3-2.3c0-0.8,0.1-1.5,0.3-2.3c0.2-0.6,0.5-1.1,0.9-1.6
		c0.4-0.4,0.8-0.8,1.3-1c1.1-0.5,2.3-0.5,3.4,0c0.5,0.2,1,0.6,1.3,1c0.4,0.5,0.7,1,0.9,1.6C33.8,47,33.9,47.7,33.9,48.5z M29.6,52.4
		c0.3,0,0.7-0.1,1-0.2c0.3-0.1,0.6-0.4,0.9-0.7c0.3-0.4,0.5-0.8,0.6-1.2c0.3-1.2,0.3-2.4,0-3.6c-0.1-0.4-0.3-0.8-0.6-1.2
		c-0.2-0.3-0.5-0.5-0.8-0.7c-0.3-0.1-0.6-0.2-0.9-0.2c-0.3,0-0.7,0.1-1,0.2c-0.3,0.1-0.6,0.4-0.8,0.7c-0.3,0.4-0.5,0.8-0.6,1.2
		c-0.1,0.6-0.2,1.2-0.2,1.8c0,0.6,0.1,1.2,0.2,1.7c0.1,0.4,0.3,0.8,0.6,1.2c0.2,0.3,0.5,0.5,0.8,0.7C29,52.2,29.3,52.3,29.6,52.4
		L29.6,52.4z"/>
	<path class="st4" d="M43.1,52.6c-0.4,0.4-0.8,0.7-1.3,0.9c-1,0.4-2.2,0.4-3.2-0.1c-0.5-0.2-1-0.6-1.3-1c-0.4-0.5-0.7-1-0.9-1.6
		c-0.2-0.7-0.3-1.5-0.3-2.3c0-0.8,0.1-1.5,0.3-2.3c0.2-0.6,0.5-1.1,0.9-1.6c0.4-0.4,0.8-0.8,1.3-1c0.5-0.2,1.1-0.3,1.7-0.3
		c0.5,0,1.1,0.1,1.5,0.3c0.5,0.2,0.9,0.5,1.3,0.9l-1.1,1c-0.2-0.2-0.5-0.4-0.8-0.6c-0.3-0.1-0.6-0.2-0.9-0.2c-0.3,0-0.7,0.1-1,0.2
		c-0.3,0.1-0.6,0.4-0.9,0.7c-0.3,0.4-0.5,0.8-0.6,1.2c-0.2,0.6-0.2,1.2-0.2,1.8c0,0.6,0.1,1.2,0.2,1.7c0.1,0.4,0.3,0.8,0.6,1.2
		c0.2,0.3,0.5,0.5,0.8,0.7c0.3,0.1,0.6,0.2,0.9,0.2c0.3,0,0.6-0.1,0.9-0.2c0.3-0.1,0.6-0.3,0.8-0.6L43.1,52.6z"/>
</g>
</svg>
