<?xml version="1.0" encoding="utf-8"?>
<!-- Generator: Adobe Illustrator 20.0.0, SVG Export Plug-In . SVG Version: 6.00 Build 0)  -->
<svg version="1.1" id="Layer_1" xmlns="http://www.w3.org/2000/svg"  x="0px" y="0px"
	 viewBox="0 0 50 50" style="enable-background:new 0 0 50 50;" xml:space="preserve">
<g>
	<path d="M24.1,39c0.1,0.1,0.2,0.2,0.3,0.2c0.1,0.1,0.3,0.1,0.4,0.1c0.1,0,0.3,0,0.4-0.1c0.1-0.1,0.2-0.1,0.3-0.2l12.5-12.5
		c0.4-0.4,0.4-1.1,0-1.5c-0.4-0.4-1.1-0.4-1.5,0L25.8,35.7V3.8c0-0.6-0.5-1-1-1c-0.6,0-1,0.5-1,1v31.9L13,25c-0.4-0.4-1.1-0.4-1.5,0
		c-0.4,0.4-0.4,1.1,0,1.5L24.1,39z M24.1,39"/>
	<path d="M1.8,47.6h45.9c0.6,0,1-0.5,1-1c0-0.6-0.5-1-1-1H1.8c-0.6,0-1,0.5-1,1C0.8,47.2,1.3,47.6,1.8,47.6L1.8,47.6z M1.8,47.6"/>
</g>
</svg>
