<?xml version="1.0" encoding="utf-8"?>
<!-- Generator: Adobe Illustrator 20.1.0, SVG Export Plug-In . SVG Version: 6.00 Build 0)  -->
<svg version="1.1" id="Layer_1" xmlns="http://www.w3.org/2000/svg"  x="0px" y="0px"
	 viewBox="0 0 44.8 44.8" style="enable-background:new 0 0 44.8 44.8;" xml:space="preserve">
<style type="text/css">
	.st0{fill:#E9E9E0;}
	.st1{fill:#D9D7CA;}
	.st2{fill:#EEAF4B;}
	.st3{fill:#FFFFFF;}
	.st4{fill:#F6E27D;}
	.st5{fill:#F2D23C;}
	.st6{fill:#F5DC60;}
	.st7{fill:#EDBF1C;}
</style>
<path class="st0" d="M29.6,0H6.4C5.7,0,5.2,0.5,5.2,1.5V44c0,0.3,0.5,0.8,1.2,0.8h32.1c0.6,0,1.2-0.5,1.2-0.8V10.4
	c0-0.6-0.1-0.7-0.2-0.9l-9.3-9.3C30,0.1,29.8,0,29.6,0L29.6,0z M29.6,0"/>
<path class="st1" d="M30,0.1v9.5h9.5L30,0.1z M30,0.1"/>
<path class="st2" d="M38.4,44.8H6.3c-0.6,0-1.2-0.5-1.2-1.2V31.2h34.4v12.4C39.6,44.3,39,44.8,38.4,44.8L38.4,44.8z M38.4,44.8"/>
<g>
	<path class="st3" d="M13.3,35.3v2.5h3.4v0.9h-3.4v2.6H17v1h-5v-8.1h5v1H13.3z M13.3,35.3"/>
	<path class="st3" d="M24.7,34.3h1.3v8.1h-1.3v-5.5l-1.8,4.5h-1.2L20,36.9v5.5h-1.3v-8.1H20l2.4,5.5L24.7,34.3z M24.7,34.3"/>
	<path class="st3" d="M29.1,34.3v7.1h3.7v1h-5v-8.1H29.1z M29.1,34.3"/>
</g>
<g>
	<path class="st4" d="M29.6,17.8l-0.4,0.3l-0.7,0.5l-5.7,4.2c-0.1,0.1-0.3,0.1-0.4,0.1s-0.3,0-0.4-0.1l-5.7-4.2l-0.7-0.5l-0.4-0.3
		c-0.2-0.1-0.3-0.3-0.3-0.5v10c0,0.4,0.3,0.7,0.7,0.7h6.8h6.8c0.4,0,0.7-0.3,0.7-0.7v-10C29.9,17.5,29.8,17.7,29.6,17.8L29.6,17.8z"
		/>
	<path class="st5" d="M29.9,17.2C29.9,17.2,29.9,17.2,29.9,17.2C29.9,17.2,29.9,17.2,29.9,17.2C29.8,17.1,29.8,17.1,29.9,17.2
		c0-0.1,0-0.1,0-0.1c0,0,0,0,0,0c0,0,0,0,0,0c0,0,0,0,0,0c0,0,0,0,0,0c0,0,0,0,0,0c0,0,0,0,0,0c0,0,0,0,0,0c0,0,0,0,0,0c0,0,0,0,0,0
		c0,0,0,0,0,0c0,0,0,0,0,0c0,0,0,0,0,0c0,0,0,0,0,0c0,0,0,0,0,0c0,0,0,0,0,0c0,0,0,0,0,0c0,0,0,0,0,0c0,0,0,0,0,0c0,0,0,0,0,0
		c0,0,0,0,0,0c0,0,0,0-0.1,0c0,0,0,0,0,0c0,0,0,0,0,0c0,0,0,0,0,0c0,0,0,0,0,0c0,0,0,0,0,0c0,0,0,0-0.1,0h-6.8h-6.8c0,0,0,0-0.1,0
		c0,0,0,0,0,0c0,0,0,0,0,0c0,0,0,0,0,0c0,0,0,0,0,0c0,0,0,0,0,0c0,0,0,0-0.1,0c0,0,0,0,0,0c0,0,0,0,0,0c0,0,0,0,0,0c0,0,0,0,0,0
		c0,0,0,0,0,0c0,0,0,0,0,0c0,0,0,0,0,0c0,0,0,0,0,0c0,0,0,0,0,0c0,0,0,0,0,0c0,0,0,0,0,0c0,0,0,0,0,0c0,0,0,0,0,0c0,0,0,0,0,0
		c0,0,0,0,0,0c0,0,0,0,0,0c0,0,0,0,0,0c0,0,0,0,0,0c0,0,0,0,0,0c0,0,0,0,0,0c0,0,0,0,0,0c0,0,0,0,0,0c0,0,0,0,0,0c0,0,0,0,0,0
		c0,0,0,0,0,0.1v0c0,0.2,0.1,0.4,0.3,0.5l0.4,0.3l0.7,0.5l5.7,4.2c0.1,0.1,0.3,0.1,0.4,0.1s0.3,0,0.4-0.1l5.7-4.2l0.7-0.5l0.4-0.3
		C29.8,17.7,29.9,17.5,29.9,17.2L29.9,17.2C29.9,17.2,29.9,17.2,29.9,17.2L29.9,17.2z"/>
	<path class="st6" d="M15.1,17.8l0.4,0.3l0.7,0.5l5.7,4.2c0.1,0.1,0.3,0.1,0.4,0.1v5h-6.8c-0.4,0-0.7-0.3-0.7-0.7v-10
		C14.9,17.5,15,17.7,15.1,17.8L15.1,17.8z"/>
	<path class="st7" d="M15.1,17.8l0.4,0.3l0.7,0.5l5.7,4.2c0.1,0.1,0.3,0.1,0.4,0.1v-6.4h-6.8c0,0,0,0-0.1,0c0,0,0,0,0,0c0,0,0,0,0,0
		c0,0,0,0,0,0c0,0,0,0,0,0c0,0,0,0,0,0c0,0,0,0-0.1,0c0,0,0,0,0,0c0,0,0,0,0,0c0,0,0,0,0,0c0,0,0,0,0,0c0,0,0,0,0,0c0,0,0,0,0,0
		c0,0,0,0,0,0c0,0,0,0,0,0c0,0,0,0,0,0c0,0,0,0,0,0c0,0,0,0,0,0c0,0,0,0,0,0c0,0,0,0,0,0c0,0,0,0,0,0c0,0,0,0,0,0c0,0,0,0,0,0
		c0,0,0,0,0,0c0,0,0,0,0,0c0,0,0,0,0,0c0,0,0,0,0,0c0,0,0,0,0,0c0,0,0,0,0,0c0,0,0,0,0,0c0,0,0,0,0,0c0,0,0,0,0,0.1v0
		C14.9,17.5,15,17.7,15.1,17.8L15.1,17.8z"/>
</g>
</svg>
