<svg xmlns="http://www.w3.org/2000/svg" viewBox="0 0 35.2 49.8"><defs><style>.cls-1{fill:#00b293;}</style></defs><title>export0</title><g id="Layer_2" data-name="Layer 2"><g id="Layer_1-2" data-name="Layer 1"><path class="cls-1" d="M26.4,8.47A.8.8,0,1,1,25.27,9.6L18.62,3v28.5a.8.8,0,1,1-1.6,0V3L10.4,9.63a.79.79,0,0,1-1.13,0,.8.8,0,0,1,0-1.13L17.18.59a.8.8,0,0,1,.64-.34h0a.86.86,0,0,1,.57.23Z" transform="translate(-0.25 -0.25)"/><path class="cls-1" d="M35.45,13.05v37H.25v-37h12a.86.86,0,0,1,0,1.72H1.85V48.33h32V14.77H23.45a.86.86,0,0,1,0-1.72Z" transform="translate(-0.25 -0.25)"/></g></g></svg>