<svg xmlns="http://www.w3.org/2000/svg" viewBox="0 0 47.4 36.4"><defs><style>.cls-1{fill:#f6871f;}</style></defs><title>logout-orange0</title><g id="Layer_2" data-name="Layer 2"><g id="Layer_1-2" data-name="Layer 1"><path class="cls-1" d="M11,9A.8.8,0,0,0,10.4,7.6a.79.79,0,0,0-.56.23l-9.6,9.6a.74.74,0,0,0-.17.26.81.81,0,0,0,.17.88l9.6,9.6A.8.8,0,0,0,11,27L2.73,18.8H27.2a.8.8,0,1,0,0-1.6H2.73Zm0,0"/><path class="cls-1" d="M46.6,0H17a.74.74,0,0,0-.8.65V14.3a.82.82,0,0,0,1.6,0V1.3h28V35.1h-28v-13a.82.82,0,0,0-1.6,0V35.75a.74.74,0,0,0,.8.65H46.6a.73.73,0,0,0,.8-.65V.65A.73.73,0,0,0,46.6,0Zm0,0"/></g></g></svg>