<svg xmlns="http://www.w3.org/2000/svg" viewBox="0 0 28 36.07"><defs><style>.cls-1{fill:#00b293;}</style></defs><title>menu_items0</title><g id="Layer_2" data-name="Layer 2"><g id="Layer_1-2" data-name="Layer 1"><path class="cls-1" d="M11,1.37A.8.8,0,0,0,10.4,0a.79.79,0,0,0-.56.23L.23,9.84a.74.74,0,0,0-.17.26A.81.81,0,0,0,.23,11l9.6,9.6A.8.8,0,0,0,11,19.43L2.73,11.2H27.2a.8.8,0,1,0,0-1.6H2.73Zm0,0"/><path class="cls-1" d="M17,34.7a.8.8,0,0,0,.57,1.37.79.79,0,0,0,.56-.23l9.6-9.6a.74.74,0,0,0,.17-.26.81.81,0,0,0-.17-.87l-9.6-9.6A.8.8,0,1,0,17,16.63l8.24,8.23H.8a.8.8,0,1,0,0,1.6H25.27Zm0,0"/></g></g></svg>