<?xml version="1.0" encoding="utf-8"?>
<!-- Generator: Adobe Illustrator 20.0.0, SVG Export Plug-In . SVG Version: 6.00 Build 0)  -->
<svg version="1.1" id="Layer_1" xmlns="http://www.w3.org/2000/svg"  x="0px" y="0px"
	 viewBox="0 0 50 50" style="enable-background:new 0 0 50 50;" xml:space="preserve">
<g>
	<path d="M8.5,19c-3.3,0-6,2.7-6,6c0,3.3,2.7,6,6,6c3.3,0,6-2.7,6-6C14.5,21.7,11.8,19,8.5,19L8.5,19z"/>
	<path d="M8.5,29.5"/>
	<path d="M41.5,19c-3.3,0-6,2.7-6,6c0,3.3,2.7,6,6,6c3.3,0,6-2.7,6-6C47.5,21.7,44.8,19,41.5,19L41.5,19z"/>
	<path d="M41.5,29.5"/>
	<path d="M25,19c-3.3,0-6,2.7-6,6c0,3.3,2.7,6,6,6c3.3,0,6-2.7,6-6C31,21.7,28.3,19,25,19L25,19z"/>
	<path d="M25,29.5"/>
</g>
</svg>
