<?xml version="1.0" encoding="utf-8"?>
<!-- Generator: Adobe Illustrator 20.0.0, SVG Export Plug-In . SVG Version: 6.00 Build 0)  -->
<svg version="1.1" id="Layer_1" xmlns="http://www.w3.org/2000/svg" xmlns:xlink="http://www.w3.org/1999/xlink" x="0px" y="0px"
	 viewBox="0 0 160 160" style="enable-background:new 0 0 160 160;" xml:space="preserve">
<style type="text/css">
	.st0{fill:#3E6486;}
	.st1{clip-path:url(#SVGID_2_);fill:#E4EDEE;}
</style>
<image style="overflow:visible;" width="480" height="480" xlink:href="../png/people.png"  transform="matrix(0.3333 0 0 0.3333 -432.6 612)">
</image>
<g>
	<circle class="st0" cx="79.9" cy="80" r="78"/>
	<g>
		<defs>
			<rect id="SVGID_1_" x="43.2" y="23.5" width="73.4" height="113"/>
		</defs>
		<clipPath id="SVGID_2_">
			<use xlink:href="#SVGID_1_"  style="overflow:visible;"/>
		</clipPath>
		<path class="st1" d="M76.4,92.1v3.8h6.7v-3.8c-1.1,0.2-2.2,0.3-3.4,0.3C78.7,92.4,77.5,92.3,76.4,92.1L76.4,92.1z M76.4,92.1"/>
		<path class="st1" d="M111.3,86.7l-13.8-4.1c-0.9,1.1-1.8,2.1-2.8,3.1l3.6,1.1c-2.4,9.5-8.9,35.6-10.7,44.9c-1.5,0.4-3,0.6-4.5,0.8
			l3.9-9.2l-3.7-25h-6.8l-3.7,25l3.9,9.2c-1.6-0.2-3.1-0.4-4.6-0.8c-1.8-9.3-8.3-35.3-10.7-44.9l3.6-1.1c-1-0.9-1.9-2-2.8-3.1
			l-13.7,4.1c-3.1,0.9-5.2,3.7-5.2,7v6c0,20.2,16.4,36.6,36.6,36.6c20.2,0,36.6-16.4,36.6-36.6v-6C116.5,90.4,114.4,87.6,111.3,86.7
			L111.3,86.7z M111.3,86.7"/>
		<path class="st1" d="M103.5,52.9c0.7-4.3,0.4-8.8-0.2-12.4c-1.3-7.7-4.3-13-4.3-13l-1.4,5.9l-0.1,0.6c0-0.2,0-0.5-0.1-0.8
			c-0.3-3.2-1.8-7.6-1.8-7.6c-3.3,1.6-8.6,1.4-8.6,1.4c1.5-1.1,5.4-2.2,5.4-2.2c-9.6-3-15.8,0.1-18.8,2.5c-0.6,0.5-1.2,1-1.5,1.4
			l1.1-1.3l2.3-2.6c-4.6,0.5-8,3.6-10,6.1c-1.5,1.8-2.3,3.4-2.3,3.4l0.4-2l0.8-4.4c-3.2,2.5-5.1,6.2-6.2,10
			c-1.8,5.7-1.9,12.6-1.9,15c-1.8,0.8-3.2,2.5-3.8,4.7c-0.6,2.2-0.4,4.7,0.4,7.1c1.3,3.8,4.2,6.6,7.3,7.3
			c3.8,8.2,10.9,16.7,19.8,16.7c8.9,0,15.9-8.4,19.8-16.6c3-0.6,5.9-3.4,7.3-7.3C108.7,59.5,107.2,54.4,103.5,52.9L103.5,52.9z
			 M103.3,63.5c-1.1,3.2-3.4,4.9-5,4.9c-0.9,0.1-1.4,0.4-1.7,1.1c-3.2,7.4-9.4,15.4-16.8,15.4c-7.4,0-13.6-8-16.8-15.4
			c-0.3-0.7-1-1.1-1.8-1.1c-1.6,0-3.8-1.7-4.9-4.9c-0.6-1.7-0.7-3.5-0.3-5c0.2-0.7,0.7-1.9,1.7-2.3c0.1,0,0.3-0.1,0.5-0.1
			c0.9-0.1,1.6-0.8,1.7-1.8c0-0.9,0.1-1.7,0.3-2.5c2.8-11,12.3-11.8,12.3-11.8c-1.7,4-4.5,5.8-4.5,5.8c9.2-3.7,12-7.8,12-7.8
			c6.1,8.5,14.5,12.1,19.4,13.7c0.1,0.9,0.3,1.7,0.4,2.6c0,0.9,0.8,1.7,1.7,1.8c0.1,0,0.3,0,0.5,0.1
			C103.6,56.8,104.6,59.9,103.3,63.5L103.3,63.5z M103.3,63.5"/>
	</g>
</g>
</svg>
