<?xml version="1.0" encoding="utf-8"?>
<!-- Generator: Adobe Illustrator 21.0.2, SVG Export Plug-In . SVG Version: 6.00 Build 0)  -->
<svg version="1.1" id="Layer_1" xmlns="http://www.w3.org/2000/svg"  x="0px" y="0px"
	 viewBox="0 0 56.7 56.7" style="enable-background:new 0 0 56.7 56.7;" xml:space="preserve">
<style type="text/css">
	.st0{fill:#E9E9E0;}
	.st1{fill:#D9D7CA;}
	.st2{fill:#F6712E;}
	.st3{fill:#FFFFFF;}
	.st4{fill:#A7AAAE;}
	.st5{fill:#D3D4D6;}
</style>
<title>ppt</title>
<g>
	<path class="st0" d="M37.4,0H8.1C7.3,0,6.6,0.7,6.6,2v53.7c0.2,0.6,0.8,1,1.5,1h40.5c0.7,0,1.3-0.4,1.5-1V13.1
		c0-0.7-0.1-0.9-0.3-1.1L38.1,0.3C37.9,0.1,37.7,0,37.4,0L37.4,0z"/>
	<path class="st1" d="M38,0.2v12h12L38,0.2z"/>
	<path class="st2" d="M48.6,56.7H8.1c-0.8,0-1.5-0.7-1.5-1.5v0V39.5h43.5v15.7C50.1,56,49.4,56.7,48.6,56.7L48.6,56.7L48.6,56.7z"/>
	<path class="st3" d="M17.8,53.6h-1.7V43.5h2.9c0.4,0,0.9,0.1,1.3,0.2c0.4,0.1,0.8,0.3,1.1,0.6c0.3,0.3,0.6,0.6,0.8,1
		c0.2,0.4,0.3,0.9,0.3,1.3c0,0.5-0.1,1-0.3,1.4c-0.2,0.4-0.4,0.8-0.7,1.1c-0.3,0.3-0.7,0.5-1.1,0.7C20,49.9,19.5,50,19,50h-1.2V53.6
		z M17.8,44.7v4h1.5c0.2,0,0.4,0,0.6-0.1c0.2-0.1,0.4-0.2,0.5-0.3c0.2-0.2,0.3-0.4,0.4-0.7c0.1-0.3,0.2-0.7,0.2-1
		c0-0.2,0-0.4-0.1-0.6c-0.1-0.5-0.4-0.9-0.9-1.1c-0.3-0.1-0.7-0.2-1-0.2L17.8,44.7z"/>
	<path class="st3" d="M26.2,53.6h-1.7V43.5h2.9c0.4,0,0.9,0.1,1.3,0.2c0.4,0.1,0.8,0.3,1.1,0.6c0.3,0.3,0.6,0.6,0.8,1
		c0.2,0.4,0.3,0.9,0.3,1.3c0,0.5-0.1,1-0.3,1.4c-0.2,0.4-0.4,0.8-0.7,1.1c-0.3,0.3-0.7,0.5-1.1,0.7c-0.5,0.2-1,0.2-1.5,0.2h-1.2
		V53.6z M26.2,44.7v4h1.5c0.2,0,0.4,0,0.6-0.1c0.2-0.1,0.4-0.2,0.5-0.3c0.2-0.2,0.3-0.4,0.4-0.7c0.1-0.3,0.2-0.7,0.2-1
		c0-0.2,0-0.4-0.1-0.6c-0.1-0.2-0.1-0.4-0.3-0.6c-0.2-0.2-0.4-0.4-0.6-0.5c-0.3-0.1-0.7-0.2-1-0.2L26.2,44.7z"/>
	<path class="st3" d="M40.1,43.5v1.1h-3v9.1h-1.7v-9.1h-3v-1.1H40.1z"/>
	<path class="st4" d="M40,30.4H15.7V14.2H40L40,30.4z M17.7,28.3H38V16.2H17.7V28.3z"/>
	<path class="st4" d="M20.8,35.4c-0.2,0-0.4,0-0.5-0.1c-0.5-0.3-0.6-0.9-0.4-1.4c0,0,0,0,0,0l3-5.1c0.3-0.5,0.9-0.6,1.4-0.4
		c0.5,0.3,0.6,0.9,0.4,1.4l-3,5.1C21.4,35.2,21.1,35.4,20.8,35.4z"/>
	<path class="st4" d="M34.9,35.4c-0.4,0-0.7-0.2-0.9-0.5l-3-5.1c-0.2-0.5,0-1.1,0.5-1.4c0.4-0.2,1-0.1,1.3,0.3l3,5.1
		c0.3,0.5,0.1,1.1-0.3,1.4c0,0,0,0,0,0C35.3,35.4,35.1,35.4,34.9,35.4z"/>
	<path class="st4" d="M27.8,16.2c-0.6,0-1-0.5-1-1v-3c0-0.6,0.5-1,1-1c0.6,0,1,0.5,1,1l0,0v3C28.9,15.8,28.4,16.2,27.8,16.2
		L27.8,16.2z"/>
	<rect x="17.7" y="16.2" class="st5" width="20.2" height="12.1"/>
</g>
</svg>
