<?xml version="1.0" encoding="utf-8"?>
<!-- Generator: Adobe Illustrator 20.0.0, SVG Export Plug-In . SVG Version: 6.00 Build 0)  -->
<svg version="1.1" id="Capa_1" xmlns="http://www.w3.org/2000/svg"  x="0px" y="0px"
	 viewBox="0 0 54 54" style="enable-background:new 0 0 54 54;" xml:space="preserve">
<style type="text/css">
	.st0{fill:#FFFFFF;}
</style>
<path class="st0" d="M52.2,52.3L37.4,36.8c3.8-3.8,6.1-9,6.1-14.8c0-11.6-9.4-21-21-21s-21,9.4-21,21s9.4,21,21,21
	c5.1,0,9.7-1.8,13.4-4.8l14.9,15.5c0.2,0.2,0.5,0.3,0.7,0.3c0.3,0,0.5-0.1,0.7-0.3C52.6,53.3,52.6,52.7,52.2,52.3z M22.5,41
	c-10.5,0-19-8.5-19-19S12,3,22.5,3s19,8.5,19,19S33,41,22.5,41z"/>
</svg>
