<?xml version="1.0" encoding="utf-8"?>
<!-- Generator: Adobe Illustrator 20.0.0, SVG Export Plug-In . SVG Version: 6.00 Build 0)  -->
<svg version="1.1" id="Layer_1" xmlns="http://www.w3.org/2000/svg"  x="0px" y="0px"
	 viewBox="0 0 50 50" style="enable-background:new 0 0 50 50;" xml:space="preserve">
<style type="text/css">
	.st0{fill:#FFFFFF;}
</style>
<path class="st0" d="M33.6,35.6c-0.4,0.4-0.8,0.9-1.1,1.4l-14.2-8.6c0.4-0.9,0.6-2,0.6-3s-0.2-2.1-0.6-3l14.2-8.6
	c1.5,2.3,4,3.8,6.9,3.8c4.5,0,8.1-3.7,8.1-8.1c0-4.5-3.7-8.1-8.1-8.1S31.2,5,31.2,9.4c0,1,0.2,2,0.5,2.9l-14.2,8.6
	c-1.5-2.2-4-3.8-6.9-3.8c-4.5,0-8.1,3.7-8.1,8.1s3.7,8.1,8.1,8.1c2.8,0,5.4-1.5,6.9-3.8l14.2,8.6c-0.3,0.9-0.5,1.9-0.5,2.9
	c0,2.2,0.8,4.3,2.4,5.7c1.6,1.6,3.7,2.4,5.7,2.4c2.1,0,4.2-0.8,5.7-2.4c1.6-1.6,2.4-3.7,2.4-5.7c0-2.2-0.8-4.3-2.4-5.7
	C42,32.4,36.8,32.4,33.6,35.6z M39.4,2.9c3.7,0,6.6,2.9,6.6,6.6S43.1,16,39.4,16s-6.6-2.9-6.6-6.6C32.8,5.9,35.7,2.9,39.4,2.9z
	 M10.7,31.9c-3.7,0-6.6-2.9-6.6-6.6s2.9-6.6,6.6-6.6s6.6,2.9,6.6,6.6S14.4,31.9,10.7,31.9z M44,46c-2.5,2.5-6.7,2.5-9.3,0
	c-1.3-1.3-1.9-2.9-1.9-4.6c0-1.8,0.7-3.4,1.9-4.6c1.3-1.3,2.9-1.9,4.6-1.9c1.7,0,3.3,0.6,4.6,1.9c1.3,1.3,1.9,2.9,1.9,4.6
	C45.9,43.1,45.2,44.8,44,46z"/>
</svg>
