<?xml version="1.0" encoding="utf-8"?>
<!-- Generator: Adobe Illustrator 20.0.0, SVG Export Plug-In . SVG Version: 6.00 Build 0)  -->
<svg version="1.1" id="Layer_1" xmlns="http://www.w3.org/2000/svg"  x="0px" y="0px"
	 viewBox="0 0 196 196" style="enable-background:new 0 0 196 196;" xml:space="preserve">
<style type="text/css">
	.st0{fill:#1EBBA6;}
</style>
<g>
	<g>
		<g>
			<path class="st0" d="M182,155.8c-1.9,0-3.5,1.6-3.5,3.5c0,9.6-7.9,17.5-17.5,17.5s-17.5-7.9-17.5-17.5c0-1.9-1.6-3.5-3.5-3.5
				s-3.5,1.6-3.5,3.5c0,9.6-7.9,17.5-17.5,17.5s-17.5-7.9-17.5-17.5c0-1.9-1.6-3.5-3.5-3.5s-3.5,1.6-3.5,3.5
				c0,9.6-7.9,17.5-17.5,17.5s-17.5-7.9-17.5-17.5c0-1.9-1.6-3.5-3.5-3.5s-3.5,1.6-3.5,3.5c0,9.6-7.9,17.5-17.5,17.5
				s-17.5-7.9-17.5-17.5c0-1.9-1.6-3.5-3.5-3.5s-3.5,1.6-3.5,3.5c0,13.5,11,24.5,24.5,24.5c8.9,0,16.7-4.8,21-11.9
				c4.3,7.1,12.1,11.9,21,11.9s16.7-4.8,21-11.9c4.3,7.1,12.1,11.9,21,11.9s16.7-4.8,21-11.9c4.3,7.1,12.1,11.9,21,11.9
				c13.5,0,24.5-11,24.5-24.5C185.5,157.3,183.9,155.8,182,155.8z"/>
			<path class="st0" d="M15.2,148.8h165.6c1.3,0,2.5-0.7,3.1-1.9c7.9-15.4,12.1-32.9,12.1-50.6c0-1.9-1.6-3.5-3.5-3.5h-21V75.3
				c0-1.9-1.6-3.5-3.5-3.5h-17.5V54.3c0-1.9-1.6-3.5-3.5-3.5h-42c-1.9,0-3.5,1.6-3.5,3.5v17.5H98c-1.9,0-3.5,1.6-3.5,3.5v17.5H56
				v-42c0-1.9-1.6-3.5-3.5-3.5h-14v-35h-7v35h-14c-1.9,0-3.5,1.6-3.5,3.5v42H3.5c-1.9,0-3.5,1.6-3.5,3.5c0,17.7,4.2,35.2,12.1,50.6
				C12.7,148,13.9,148.8,15.2,148.8z M164.5,78.8v14h-28v-14H147H164.5z M108.5,57.8h35v14H133h-24.5V57.8z M101.5,78.8h3.5h24.5v14
				h-28V78.8z M21,54.3h10.5h7H49v38.5H21V54.3z M17.5,99.8h35H98h35h35h20.9c-0.5,14.7-4,29.1-10.3,42H17.4
				c-6.3-12.9-9.8-27.3-10.3-42H17.5z"/>
			<rect x="28" y="61.3" class="st0" width="14" height="7"/>
			<rect x="28" y="71.8" class="st0" width="14" height="7"/>
		</g>
	</g>
</g>
</svg>
