<?xml version="1.0" encoding="utf-8"?>
<!-- Generator: Adobe Illustrator 20.0.0, SVG Export Plug-In . SVG Version: 6.00 Build 0)  -->
<svg version="1.1" id="Layer_1" xmlns="http://www.w3.org/2000/svg" xmlns:xlink="http://www.w3.org/1999/xlink" x="0px" y="0px"
	 viewBox="0 0 160 160" style="enable-background:new 0 0 160 160;" xml:space="preserve">
<style type="text/css">
	.st0{fill:#3E6486;}
	.st1{fill:#E4EDEE;}
</style>
<g>
	<circle class="st0" cx="80" cy="80" r="78"/>
	<g>
		<path class="st1" d="M89.6,68.7c0-2.2,1.8-4.1,4-4.1c2.2,0,4,1.8,4,4.1c0,2.2-1.8,4.1-4,4.1C91.4,72.8,89.6,70.9,89.6,68.7
			L89.6,68.7z M77,34L77,34l0,5.6h5.1v-5.4c1.8-0.9,3-2.7,3-4.8c0-3-2.4-5.4-5.4-5.4c-3,0-5.4,2.4-5.4,5.4
			C74.3,31.4,75.4,33.1,77,34L77,34z M65.8,72.8c2.2,0,4-1.8,4-4.1c0-2.2-1.8-4.1-4-4.1c-2.2,0-4,1.8-4,4.1
			C61.8,70.9,63.6,72.8,65.8,72.8L65.8,72.8z M79.7,136.1c6.1,0,11.2-3.9,13.2-9.3H66.5C68.5,132.1,73.6,136.1,79.7,136.1
			L79.7,136.1z M37.6,119.5c0-2.2,1.2-4,3.1-4.9V91.6c0-4.6,3.5-8.3,7.9-8.6V71.8c0,0,1.1-20.3,17.9-26.7c5-1.9,9.5-2.6,13.5-2.8
			c4,0.2,8.5,0.9,13.5,2.8c16.8,6.3,17.9,26.7,17.9,26.7V83c4.5,0.3,8,4,8,8.5v23.1c1.8,0.9,3.1,2.7,3.1,4.9c0,3-2.4,5.4-5.4,5.4
			c-3,0-5.4-2.4-5.4-5.4c0-2.2,1.2-4,3-4.9V99.3c-1,0.5-2.1,0.8-3.3,0.9v5.3c0,0.4,0.1,0.9,0.1,1.3c0,0.5,0,0.9-0.1,1.4v0.1h0
			c-0.7,8.9-7.7,16.1-16.4,17.1l0,0.1H65.1l0-0.1c-8.8-1-15.7-8.1-16.4-17.1h0v-0.1c0-0.5-0.1-0.9-0.1-1.4c0-0.4,0-0.9,0.1-1.3v-5.3
			c-1.2-0.1-2.3-0.4-3.3-0.9v15.4c1.8,0.9,3.1,2.7,3.1,4.9c0,3-2.4,5.4-5.4,5.4C40,124.9,37.6,122.5,37.6,119.5L37.6,119.5z
			 M89,91.2c0-1.4-1.2-2.6-2.6-2.6c-1.4,0-2.6,1.2-2.6,2.6c0,1.4,1.1,2.6,2.6,2.6C87.8,93.8,89,92.6,89,91.2L89,91.2z M95.3,91.2
			c0-1.4-1.2-2.6-2.6-2.6c-1.4,0-2.6,1.2-2.6,2.6c0,1.4,1.2,2.6,2.6,2.6C94.2,93.8,95.3,92.6,95.3,91.2L95.3,91.2z M101.7,91.2
			c0-1.4-1.2-2.6-2.6-2.6c-1.4,0-2.6,1.2-2.6,2.6c0,1.4,1.2,2.6,2.6,2.6C100.6,93.8,101.7,92.6,101.7,91.2L101.7,91.2z M58.2,69.4
			c0,6.9,5.4,7.4,5.4,7.4c1.9,0.6,5.8,0.3,7.6,0c1.6-0.3,7.7-0.8,8.7-0.9c0,0,0.1,0,0.2,0c0.1,0,0.1,0,0.1,0c1,0.1,7,0.6,8.7,0.9
			c1.8,0.3,5.8,0.6,7.6,0c0,0,5.4-0.4,5.4-7.4c0,0,0-7.7-5.4-12.4c-5.2-4.5-13.1-5.5-16.1-5.6h-0.6c-3.1,0-10.9,1-16.1,5.6
			C58.2,61.8,58.2,69.4,58.2,69.4L58.2,69.4z M58.2,69.4"/>
	</g>
</g>
<image style="overflow:visible;" width="480" height="480" xlink:href="../../avatar/png/bot_avatat.png"  transform="matrix(0.3333 0 0 0.3333 -590.2949 606.4521)">
</image>
</svg>
