<?xml version="1.0" encoding="utf-8"?>
<!-- Generator: Adobe Illustrator 21.0.2, SVG Export Plug-In . SVG Version: 6.00 Build 0)  -->
<svg version="1.1" id="Layer_1" xmlns="http://www.w3.org/2000/svg"  x="0px" y="0px"
	 viewBox="0 0 56.7 56.7" style="enable-background:new 0 0 56.7 56.7;" xml:space="preserve">
<style type="text/css">
	.st0{fill:#E9E9E0;}
	.st1{fill:#D9D7CA;}
	.st2{fill:#95A5A5;}
	.st3{fill:#FFFFFF;}
	.st4{fill:#A7AAAE;}
</style>
<title>text</title>
<g>
	<path class="st0" d="M37.4,0H8.1C7.3,0,6.6,0.7,6.6,2v53.7c0.2,0.6,0.8,1,1.5,1h40.5c0.7,0,1.3-0.4,1.5-1V13.1
		c0-0.7-0.1-0.9-0.3-1.1L38.1,0.3C37.9,0.1,37.7,0,37.4,0L37.4,0z"/>
	<path class="st1" d="M38,0.2v12h12L38,0.2z"/>
	<path class="st2" d="M48.6,56.7H8.1c-0.8,0-1.5-0.7-1.5-1.5v0V39.5h43.5v15.7C50.1,56,49.4,56.7,48.6,56.7L48.6,56.7L48.6,56.7z"/>
	<path class="st3" d="M22.1,43.5v1.1h-3v9.1h-1.7v-9.1h-3v-1.1H22.1z"/>
	<path class="st3" d="M28.8,48.7l2.6,5h-1.9l-1.6-3.8h-0.1L26,53.6h-1.9l2.6-5l-2.8-5.2h1.9l1.8,4.2h0.1l1.9-4.2h1.9L28.8,48.7z"/>
	<path class="st3" d="M41,43.5v1.1h-3v9.1h-1.7v-9.1h-3v-1.1H41z"/>
	<path class="st4" d="M18.7,13.2h-6.1c-0.6,0-1-0.5-1-1s0.5-1,1-1h6.1c0.6,0,1,0.5,1,1S19.3,13.2,18.7,13.2z"/>
	<path class="st4" d="M21.8,18.2h-9.1c-0.6,0-1-0.5-1-1c0-0.6,0.5-1,1-1h9.1c0.6,0,1,0.5,1,1C22.8,17.8,22.3,18.2,21.8,18.2z"/>
	<path class="st4" d="M25.8,18.2c-0.6,0-1-0.4-1-1c0,0,0,0,0,0c0-0.3,0.1-0.5,0.3-0.7c0.4-0.4,1-0.4,1.4,0c0.4,0.4,0.4,1,0,1.4
		C26.3,18.1,26.1,18.2,25.8,18.2L25.8,18.2z"/>
	<path class="st4" d="M38,18.2h-8.1c-0.6,0-1-0.5-1-1c0-0.6,0.5-1,1-1H38c0.6,0,1,0.5,1,1C39,17.8,38.5,18.2,38,18.2z"/>
	<path class="st4" d="M12.7,33.4c-0.3,0-0.5-0.1-0.7-0.3c-0.4-0.4-0.4-1,0-1.4c0.4-0.4,1-0.4,1.4,0c0.2,0.2,0.3,0.4,0.3,0.7
		C13.7,33,13.2,33.4,12.7,33.4C12.7,33.4,12.7,33.4,12.7,33.4L12.7,33.4z"/>
	<path class="st4" d="M24.8,33.4h-8.1c-0.6,0-1-0.5-1-1c0-0.6,0.5-1,1-1h8.1c0.6,0,1,0.5,1,1C25.8,33,25.4,33.4,24.8,33.4z"/>
	<path class="st4" d="M44,18.2h-2c-0.6,0-1-0.5-1-1c0-0.6,0.5-1,1-1h2c0.6,0,1,0.5,1,1C45,17.8,44.6,18.2,44,18.2L44,18.2z"/>
	<path class="st4" d="M34.9,23.3H12.7c-0.6,0-1-0.5-1-1c0-0.6,0.5-1,1-1h22.3c0.6,0,1,0.5,1,1C35.9,22.8,35.5,23.3,34.9,23.3z"/>
	<path class="st4" d="M44,23.3h-6.1c-0.6,0-1-0.5-1-1c0-0.6,0.5-1,1-1H44c0.6,0,1,0.5,1,1C45,22.8,44.6,23.3,44,23.3z"/>
	<path class="st4" d="M16.7,28.3h-4c-0.6,0-1-0.5-1-1c0-0.6,0.5-1,1-1h4c0.6,0,1,0.5,1,1C17.7,27.9,17.3,28.3,16.7,28.3z"/>
	<path class="st4" d="M30.9,28.3H20.8c-0.6,0-1-0.5-1-1c0-0.6,0.5-1,1-1h10.1c0.6,0,1,0.5,1,1C31.9,27.9,31.4,28.3,30.9,28.3z"/>
	<path class="st4" d="M44,28.3h-9.1c-0.6,0-1-0.5-1-1c0-0.6,0.5-1,1-1H44c0.6,0,1,0.5,1,1C45,27.9,44.6,28.3,44,28.3z"/>
</g>
</svg>
