<?xml version="1.0" encoding="utf-8"?>
<!-- Generator: Adobe Illustrator 20.0.0, SVG Export Plug-In . SVG Version: 6.00 Build 0)  -->
<svg version="1.1" id="Layer_1" xmlns="http://www.w3.org/2000/svg"  x="0px" y="0px"
	 viewBox="0 0 960 960" style="enable-background:new 0 0 960 960;" xml:space="preserve">
<style type="text/css">
	.st0{fill:#E9E9E0;}
	.st1{fill:#D9D7CA;}
	.st2{fill:#095DB2;}
	.st3{fill:#808080;}
	.st4{fill:#B3B3B3;}
	.st5{fill:#FFFFFF;}
</style>
<path class="st0" d="M486.4,458h-23.2c-0.6,0-1.2,0.5-1.2,1.5V502c0,0.3,0.5,0.8,1.2,0.8h32.1c0.6,0,1.2-0.5,1.2-0.8v-33.6
	c0-0.6-0.1-0.7-0.2-0.9l-9.3-9.3C486.8,458.1,486.6,458,486.4,458L486.4,458z M486.4,458"/>
<path class="st1" d="M486.8,458.1v9.5h9.5L486.8,458.1z M486.8,458.1"/>
<path class="st2" d="M495.2,502.8h-32.1c-0.6,0-1.2-0.5-1.2-1.2v-12.4h34.4v12.4C496.4,502.3,495.9,502.8,495.2,502.8L495.2,502.8z
	 M495.2,502.8"/>
<path class="st3" d="M488,478.2c0,2.5-2,4.5-4.5,4.5s-4.5-2-4.5-4.5s2-4.5,4.5-4.5S488,475.7,488,478.2L488,478.2z M488,478.2"/>
<rect x="468" y="468.9" class="st3" width="7.5" height="7.5"/>
<path class="st4" d="M473.6,470.4l10.8-2.9l-2.9,10.8L473.6,470.4z M473.6,470.4"/>
<g>
	<path class="st5" d="M468.1,492.1h6.3v0.9h-2.6v7.5h-1.1V493h-2.6V492.1z"/>
	<path class="st5" d="M476.1,492.1h1.1v8.4h-1.1V492.1z"/>
	<path class="st5" d="M479.5,492.1h4.7v0.9h-3.6v2.3h2.5v0.9h-2.5v4.3h-1.1V492.1z"/>
	<path class="st5" d="M485.6,492.1h4.7v0.9h-3.6v2.3h2.5v0.9h-2.5v4.3h-1.1V492.1z"/>
</g>
</svg>
