<?xml version="1.0" encoding="utf-8"?>
<!-- Generator: Adobe Illustrator 21.0.2, SVG Export Plug-In . SVG Version: 6.00 Build 0)  -->
<svg version="1.1" id="Layer_1" xmlns="http://www.w3.org/2000/svg"  x="0px" y="0px"
	 viewBox="0 0 56.7 56.7" style="enable-background:new 0 0 56.7 56.7;" xml:space="preserve">
<style type="text/css">
	.st0{fill:#E9E9E0;}
	.st1{fill:#D9D7CA;}
	.st2{fill:#1EBBA6;}
	.st3{fill:#FFFFFF;}
	.st4{fill:#A7AAAE;}
</style>
<title>xls</title>
<g>
	<path class="st0" d="M37.4,0H8.1C7.3,0,6.6,0.7,6.6,2v53.7c0.2,0.6,0.8,1,1.5,1h40.5c0.7,0,1.3-0.4,1.5-1V13.1
		c0-0.7-0.1-0.9-0.3-1.1L38.1,0.3C37.9,0.1,37.7,0,37.4,0L37.4,0z"/>
	<path class="st1" d="M38,0.2v12h12L38,0.2z"/>
	<path class="st2" d="M48.6,56.7H8.1c-0.8,0-1.5-0.7-1.5-1.5v0V39.5h43.5v15.7C50.1,56,49.4,56.7,48.6,56.7L48.6,56.7L48.6,56.7z"/>
	<path class="st3" d="M20.6,48.7l2.6,5h-1.9l-1.6-3.8h-0.1l-1.7,3.8h-1.9l2.6-5l-2.7-5.2h1.9l1.8,4.2h0.1l1.9-4.2h1.9L20.6,48.7z"/>
	<path class="st3" d="M27.4,43.5v8.9h4.7v1.3h-6.4V43.5H27.4z"/>
	<path class="st3" d="M39.5,50.8c0,0.4-0.1,0.7-0.2,1.1c-0.2,0.3-0.4,0.7-0.6,0.9c-0.3,0.3-0.6,0.5-1,0.6c-0.4,0.2-0.9,0.2-1.4,0.2
		c-0.2,0-0.5,0-0.7,0c-0.2,0-0.5-0.1-0.7-0.1c-0.2-0.1-0.5-0.1-0.7-0.2c-0.2-0.1-0.4-0.2-0.6-0.3l0.3-1.2c0.2,0.1,0.3,0.2,0.5,0.2
		l0.6,0.2c0.2,0.1,0.4,0.1,0.6,0.1c0.2,0,0.4,0.1,0.6,0.1c0.5,0,0.9-0.1,1.3-0.4c0.3-0.3,0.5-0.7,0.4-1.2c0-0.3-0.1-0.6-0.3-0.8
		c-0.2-0.2-0.5-0.4-0.8-0.6c-0.3-0.2-0.7-0.4-1-0.5c-0.4-0.2-0.7-0.4-1-0.6c-0.3-0.2-0.6-0.5-0.8-0.9c-0.2-0.4-0.3-0.8-0.3-1.2
		c0-0.4,0.1-0.8,0.2-1.2c0.2-0.3,0.4-0.6,0.7-0.9c0.3-0.3,0.6-0.4,1-0.6c0.4-0.1,0.8-0.2,1.2-0.2c0.4,0,0.9,0,1.3,0.1
		c0.4,0.1,0.7,0.2,1,0.4c-0.1,0.1-0.1,0.3-0.2,0.4l-0.2,0.4l-0.2,0.3l-0.1,0.1l-0.2-0.1c-0.1-0.1-0.2-0.1-0.3-0.1
		c-0.2-0.1-0.3-0.1-0.5-0.1c-0.3,0-0.5,0-0.8,0c-0.2,0-0.4,0.1-0.5,0.2c-0.2,0.1-0.3,0.2-0.4,0.3c-0.1,0.1-0.2,0.3-0.3,0.4
		c-0.1,0.1-0.1,0.3-0.1,0.5c0,0.3,0.1,0.6,0.3,0.9c0.2,0.2,0.5,0.4,0.8,0.6c0.3,0.2,0.7,0.3,1,0.5c0.4,0.2,0.7,0.4,1,0.6
		c0.3,0.2,0.6,0.5,0.8,0.9C39.4,49.9,39.5,50.4,39.5,50.8L39.5,50.8z"/>
	<path class="st4" d="M23.8,16.2v-4H11.6v22.3H45V16.2H23.8z M13.7,14.2h8.1v2h-8.1V14.2z M13.7,18.2h8.1v2h-8.1V18.2z M13.7,22.3
		h8.1v2h-8.1V22.3z M13.7,26.3h8.1v2h-8.1V26.3z M21.8,32.4h-8.1v-2h8.1V32.4z M43,32.4H23.8v-2H43L43,32.4z M43,28.4H23.8v-2H43
		L43,28.4z M43,24.3H23.8v-2H43L43,24.3z M23.8,20.3v-2H43v2H23.8z"/>
</g>
</svg>
