<?xml version="1.0" encoding="utf-8"?>
<!-- Generator: Adobe Illustrator 21.0.2, SVG Export Plug-In . SVG Version: 6.00 Build 0)  -->
<svg version="1.1" id="Layer_1" xmlns="http://www.w3.org/2000/svg"  x="0px" y="0px"
	 viewBox="0 0 56.7 56.7" style="enable-background:new 0 0 56.7 56.7;" xml:space="preserve">
<style type="text/css">
	.st0{fill:#E9E9E0;}
	.st1{fill:#D9D7CA;}
	.st2{fill:#F29C1F;}
	.st3{fill:#FFFFFF;}
	.st4{fill:#A7AAAE;}
</style>
<title>xml</title>
<g>
	<path class="st0" d="M37.4,0H8.1C7.3,0,6.6,0.7,6.6,2v53.7c0.2,0.6,0.8,1,1.5,1h40.5c0.7,0,1.3-0.4,1.5-1V13.1
		c0-0.7-0.1-0.9-0.3-1.1L38.1,0.3C37.9,0.1,37.7,0,37.4,0L37.4,0z"/>
	<path class="st1" d="M38,0.2v12h12L38,0.2z"/>
	<path class="st2" d="M48.6,56.7H8.1c-0.8,0-1.5-0.7-1.5-1.5v0V39.5h43.5v15.7C50.1,56,49.4,56.7,48.6,56.7L48.6,56.7L48.6,56.7z"/>
	<path class="st3" d="M19.6,48.7l2.6,5h-1.9l-1.6-3.8h-0.1l-1.7,3.8h-2l2.6-5l-2.7-5.2h1.9l1.8,4.2h0.1l1.9-4.2h1.9L19.6,48.7z"/>
	<path class="st3" d="M32.4,43.5h1.7v10.2h-1.7v-7l-2.3,5.7h-1.5l-2.3-5.7v7h-1.7V43.5h1.7l3,7L32.4,43.5z"/>
	<path class="st3" d="M38.3,43.5v8.9H43v1.3h-6.4V43.5H38.3z"/>
	<path class="st4" d="M15.7,24.3c-0.6,0-1-0.4-1-1c0-0.3,0.1-0.6,0.3-0.7l6.1-6.1c0.4-0.4,1-0.4,1.4,0c0.4,0.4,0.4,1,0,1.4L16.4,24
		C16.2,24.2,16,24.3,15.7,24.3L15.7,24.3z"/>
	<path class="st4" d="M21.8,30.4c-0.3,0-0.5-0.1-0.7-0.3L15,24c-0.4-0.4-0.4-1,0-1.4c0.4-0.4,1-0.4,1.4,0l6.1,6.1
		c0.4,0.4,0.4,1,0,1.4C22.3,30.3,22.1,30.4,21.8,30.4L21.8,30.4z"/>
	<path class="st4" d="M33.9,30.4c-0.6,0-1-0.4-1-1c0-0.3,0.1-0.6,0.3-0.7l6.1-6.1c0.4-0.4,1-0.4,1.4,0c0.4,0.4,0.4,1,0,1.4l-6.1,6.1
		C34.4,30.3,34.2,30.4,33.9,30.4L33.9,30.4z"/>
	<path class="st4" d="M40,24.3c-0.3,0-0.5-0.1-0.7-0.3l-6.1-6.1c-0.4-0.4-0.4-1,0-1.4c0.4-0.4,1-0.4,1.4,0l6.1,6.1
		c0.4,0.4,0.4,1,0,1.4C40.5,24.2,40.3,24.3,40,24.3L40,24.3z"/>
	<path class="st4" d="M24.8,32.4c-0.6,0-1-0.5-1-1c0-0.1,0-0.2,0.1-0.3l6.1-17.2c0.2-0.5,0.8-0.8,1.3-0.6c0.5,0.2,0.8,0.8,0.6,1.3
		l-6.1,17.2C25.6,32.1,25.2,32.4,24.8,32.4L24.8,32.4z"/>
</g>
</svg>
